<svg version="1.1" id="Layer_1" xmlns="http://www.w3.org/2000/svg" xmlns:xlink="http://www.w3.org/1999/xlink" x="0px" y="0px"
	 width="100%" viewBox="0 0 1024 432" enable-background="new 0 0 1024 432" fill="black" xml:space="preserve">
<symbol id="rd-icon-spotter">
<path fill="#000000" opacity="1.000000" stroke="none" 
	d="
M228.959106,158.036194 
	C231.209808,160.732269 229.825226,162.547867 227.782196,163.574661 
	C220.867386,167.049942 220.887329,172.765564 221.739578,179.332504 
	C225.030792,204.692795 220.630569,228.373627 205.425110,249.462433 
	C193.878876,265.476166 178.603287,277.143890 161.427078,286.419189 
	C150.438690,292.353058 139.117462,297.640869 127.231850,301.604370 
	C120.994125,303.684448 119.264091,303.058990 117.242874,296.716553 
	C113.859573,286.099976 110.906342,275.347168 107.677643,264.680267 
	C104.205635,253.209579 100.548828,241.794510 97.120499,230.311035 
	C95.117302,223.601105 90.726433,219.984756 83.851334,219.349976 
	C81.704926,219.151794 79.805344,218.687073 79.157555,216.399826 
	C78.530479,214.185715 80.242676,213.056168 81.709473,211.986465 
	C86.547653,208.458069 87.655472,203.838577 85.915329,198.302551 
	C79.017609,176.358353 70.638527,154.979965 61.303776,133.969742 
	C59.276791,129.407501 57.028576,124.944000 54.960094,120.399590 
	C52.810345,115.676636 49.231361,113.171036 44.020569,113.134544 
	C40.948879,113.113029 38.273647,112.559059 37.810661,108.857208 
	C37.330452,105.017647 40.389126,104.504768 42.904137,104.005493 
	C64.048386,99.807884 83.335800,91.115784 102.198219,80.898987 
	C115.708138,73.581367 130.288742,68.879005 146.009491,68.575211 
	C167.153076,68.166618 182.807999,77.461319 193.675613,95.164108 
	C202.191742,109.036430 207.468979,124.386208 212.083435,139.836548 
	C214.813446,148.977295 218.373932,156.174042 228.959106,158.036194 
M149.532043,244.043747 
	C153.698059,253.567825 157.864059,263.091919 161.957565,272.450256 
	C165.518875,271.869293 167.120270,269.906433 168.864471,268.138489 
	C186.045212,250.723785 191.190094,229.297775 189.309891,205.711090 
	C187.028641,177.093643 177.311188,150.551193 165.604523,124.694084 
	C160.378235,113.150482 153.993729,102.228035 144.164185,93.702782 
	C135.513931,86.200340 125.931969,84.466759 115.339127,88.350349 
	C111.767662,89.659729 108.470375,91.701073 104.995972,93.294975 
	C100.333031,95.434105 99.088554,99.003967 99.741386,103.907219 
	C100.799736,111.856201 102.554558,119.644127 104.879448,127.277985 
	C116.973740,166.989853 133.152786,205.148178 149.532043,244.043747 
z"/>
<path fill="#000000" opacity="1.000000" stroke="none" 
	d="
M425.771729,17.921288 
	C422.628326,16.903234 419.782013,17.380774 416.966980,17.395533 
	C414.035065,17.410906 411.471405,16.895540 411.035522,13.483130 
	C410.585815,9.962396 411.988037,7.096682 415.471222,6.017569 
	C417.812103,5.292345 420.391113,5.157746 422.872223,5.093667 
	C434.509460,4.793113 446.197357,5.716579 457.755493,3.599704 
	C461.961151,2.829435 463.722168,5.629238 465.348572,8.682323 
	C474.587585,26.025919 483.864838,43.349213 493.065125,60.713303 
	C509.048187,90.878746 524.976196,121.073372 540.965271,151.235626 
	C541.777832,152.768433 542.368652,154.561081 544.084534,155.476471 
	C545.041687,154.602097 544.669128,153.539886 544.690491,152.606201 
	C545.636230,111.301842 545.854187,69.990242 545.870239,28.676928 
	C545.871155,26.345739 545.788696,24.012093 545.665405,21.683809 
	C545.426392,17.170147 543.244934,14.676724 538.500854,14.466009 
	C533.845093,14.259220 531.539062,11.847000 531.722107,7.794184 
	C531.930664,3.175993 535.028015,2.401548 538.708984,2.856509 
	C547.351074,3.924650 555.969055,3.607993 564.617065,2.947997 
	C567.839661,2.702056 571.034851,2.994478 571.601257,7.449529 
	C572.171997,11.938881 569.451721,13.250291 565.913940,14.111224 
	C559.740662,15.613502 558.343323,17.441870 558.307922,24.874210 
	C558.236511,39.868378 558.291565,54.863438 558.356628,69.857864 
	C558.400024,79.848167 558.321655,89.831802 558.863403,99.827599 
	C559.207092,106.167938 561.169434,110.738937 567.360229,113.061195 
	C569.226379,113.761208 571.170105,114.857979 571.004395,117.288063 
	C570.855774,119.466774 568.934082,120.106850 567.208923,120.781425 
	C559.884277,123.645546 559.022156,124.887749 559.009033,132.984131 
	C558.975769,153.476685 558.989258,173.969360 558.932434,194.461823 
	C558.922729,197.954926 558.399353,201.459991 558.570007,204.937119 
	C558.834290,210.322586 555.742188,211.999359 551.188721,212.194427 
	C543.868835,212.508041 536.536560,212.568954 529.223145,212.979218 
	C525.007263,213.215698 522.889404,210.670044 520.909729,207.660263 
	C511.474518,193.315567 502.925476,178.440903 494.607391,163.434845 
	C479.750458,136.632568 464.991669,109.775856 450.161896,82.958481 
	C449.388916,81.560699 448.914978,79.818298 447.035797,79.273026 
	C445.635193,80.231049 446.122375,81.680435 446.122223,82.922066 
	C446.117432,120.574211 446.223724,158.226715 446.063812,195.878082 
	C446.043030,200.762680 446.981934,203.828033 452.319885,204.611404 
	C455.691833,205.106247 457.745972,207.363373 457.185760,210.973160 
	C456.613647,214.659378 453.493134,214.400696 450.889496,214.209686 
	C441.554047,213.524811 432.271057,213.858612 423.005371,215.111969 
	C420.746094,215.417572 418.559967,215.232803 417.500641,212.786331 
	C416.346100,210.120041 417.943970,208.316742 419.794861,206.786255 
	C420.669434,206.063065 421.764038,205.415329 422.855835,205.176590 
	C429.501740,203.723343 431.318268,199.074203 431.489777,192.971848 
	C432.032928,173.642639 431.200958,154.332474 430.850800,135.015991 
	C430.748260,129.360092 428.308807,125.125504 422.875275,122.875427 
	C420.836426,122.031128 418.797974,120.948021 418.858124,118.333740 
	C418.923523,115.491020 421.417755,115.164322 423.419006,114.477592 
	C428.524872,112.725464 430.738098,109.010826 430.748718,103.801682 
	C430.801910,77.649178 430.160156,51.513172 428.808105,25.395634 
	C428.669769,22.723532 428.397858,20.042358 425.771729,17.921288 
z"/>
<path fill="#000000" opacity="1.000000" stroke="none" 
	d="
M918.212891,101.177628 
	C907.591309,124.019783 897.851562,146.843735 888.396912,169.794876 
	C886.883362,173.468918 887.801758,175.230927 891.365417,176.577042 
	C900.087891,179.871719 908.702759,183.449738 917.392578,186.832535 
	C923.296326,189.130753 928.802429,187.548065 934.279114,185.055893 
	C936.275269,184.147537 938.744385,181.962067 940.693726,183.819809 
	C942.881714,185.904907 940.764221,188.559479 939.728638,190.685165 
	C936.513672,197.284744 933.733337,204.046310 931.305542,210.968704 
	C930.713196,212.657562 930.033630,214.802612 927.886780,214.810074 
	C925.640320,214.817886 925.110596,212.540939 924.684448,210.863083 
	C922.122864,200.777649 915.642212,195.152954 905.647034,192.627213 
	C899.217468,191.002487 893.019409,188.400879 886.805908,186.007751 
	C883.813782,184.855286 882.096436,185.566452 880.941833,188.478714 
	C872.106384,210.764496 862.493713,232.753036 855.379395,255.694717 
	C853.491577,261.782349 854.757568,266.768738 859.937073,270.765137 
	C873.574646,281.287537 894.189880,282.648010 909.008545,273.955078 
	C913.407715,271.374420 917.097717,268.107727 919.713867,263.703400 
	C921.784302,260.217926 924.529785,259.442200 928.166748,261.293457 
	C931.862244,263.174500 931.916321,265.954895 930.474609,269.275146 
	C926.291565,278.908722 922.167419,288.571503 915.541687,296.882782 
	C910.516724,303.186127 908.293457,303.780304 901.055420,300.517792 
	C871.582214,287.232849 841.663452,275.076569 810.956421,264.918823 
	C805.425049,263.089111 799.838501,261.492401 794.014709,260.750580 
	C791.427490,260.421051 788.276062,259.908997 788.950806,256.057037 
	C789.534851,252.722458 791.924194,250.057205 795.196899,250.985703 
	C801.593628,252.800491 803.239319,248.877380 805.172058,244.401932 
	C813.096802,226.051773 821.027588,207.702484 829.195618,189.460129 
	C832.087585,183.001068 832.445679,177.353653 826.661194,172.324646 
	C825.406311,171.233719 824.374878,169.730209 825.385376,167.901764 
	C826.219849,166.391876 827.679382,166.255875 829.278870,166.279984 
	C836.778320,166.393127 839.764648,164.535721 842.710266,156.987625 
	C849.913818,138.528427 857.482605,120.206070 863.831177,101.419991 
	C866.924561,92.266479 869.813965,83.063576 872.152649,73.677124 
	C872.965881,70.412979 872.083801,68.580673 869.215820,67.295876 
	C866.520386,66.088371 863.808838,64.785736 865.532532,61.023087 
	C867.269043,57.232616 870.295837,58.179939 873.242065,59.109318 
	C890.114624,64.431725 906.202515,71.718758 922.410645,78.712997 
	C945.350037,88.611900 968.337585,98.399254 991.281738,108.287148 
	C998.311523,111.316635 998.612366,112.957291 993.190674,118.525940 
	C988.114685,123.739540 984.589050,129.940643 981.373352,136.367859 
	C980.181152,138.750549 979.063110,141.181427 977.701660,143.465347 
	C976.208008,145.970963 974.507446,148.421402 970.958069,146.445908 
	C967.503174,144.523041 965.558167,141.977234 967.468689,137.869705 
	C968.802063,135.003220 970.248962,132.182999 970.654541,128.978836 
	C971.876526,119.326752 968.465332,112.094719 959.606995,107.470291 
	C951.199402,103.081154 942.568970,99.074417 933.844299,95.349861 
	C925.831055,91.929008 922.810791,93.236885 918.212891,101.177628 
z"/>
<path fill="#000000" opacity="1.000000" stroke="none" 
	d="
M367.011841,11.587812 
	C366.362366,19.423506 365.708862,26.870539 366.315948,34.360836 
	C366.664764,38.664333 367.076813,42.962692 367.457367,47.263630 
	C367.714630,50.171112 367.333893,52.623058 363.730652,53.147305 
	C360.101166,53.675365 357.429169,52.524109 356.297363,48.913799 
	C355.654053,46.861855 355.509552,44.658749 354.957733,42.572037 
	C352.266235,32.394707 345.540070,27.044100 335.093536,27.064232 
	C323.704498,27.086178 312.625397,29.679518 301.515778,31.756418 
	C296.270355,32.737026 293.541016,37.646004 294.538208,43.306271 
	C298.546448,66.057503 302.571960,88.806526 306.779449,111.521469 
	C308.904938,122.996338 309.099304,123.026505 320.705536,120.762291 
	C327.724915,119.392891 334.692780,117.761490 341.694336,116.298157 
	C347.335815,115.119087 351.134796,111.642876 353.885468,106.779442 
	C354.622925,105.475555 355.390594,104.181503 356.246246,102.953934 
	C356.986298,101.892212 357.666168,100.458870 359.302002,100.867966 
	C360.793396,101.240936 361.164459,102.638481 361.418701,103.977623 
	C363.091339,112.787216 364.462219,121.659447 366.983063,130.291565 
	C367.316803,131.434189 367.315247,132.672958 366.322144,133.545593 
	C365.093719,134.624954 363.832764,133.996552 362.616119,133.403946 
	C362.466461,133.331039 362.290985,133.277695 362.179749,133.164093 
	C351.718872,122.479317 339.723328,126.071831 327.746735,129.451172 
	C323.264069,130.716019 318.792969,132.028595 314.281311,133.181290 
	C312.035797,133.755005 311.423828,134.772034 311.934021,137.125031 
	C316.937012,160.198730 321.216248,183.439865 327.541626,206.207672 
	C330.456970,216.701126 334.556213,218.800430 347.865662,217.649994 
	C366.364502,216.050995 382.515625,201.644684 386.194305,183.570755 
	C386.570587,181.721848 386.474182,179.953903 386.374847,178.125336 
	C386.156708,174.109879 388.660004,172.439377 392.156189,171.969070 
	C395.624298,171.502518 397.511383,173.467010 398.066345,176.668457 
	C399.856354,186.994278 401.735168,197.323166 401.266876,207.877731 
	C400.880798,216.580078 398.665833,218.845520 390.231659,220.349350 
	C357.312256,226.218948 324.301514,231.682678 292.162109,241.214050 
	C287.861023,242.489578 283.549957,243.795441 279.639648,246.109070 
	C277.488586,247.381805 275.191010,248.238266 273.544434,245.556641 
	C271.993866,243.031342 272.251923,240.467102 274.454254,238.284927 
	C274.687744,238.053574 274.965088,237.788651 275.265533,237.713974 
	C282.957733,235.801956 280.770996,230.397522 280.003204,225.142639 
	C277.190186,205.890182 273.255707,186.845734 269.754303,167.720169 
	C268.516357,160.957993 266.236084,155.550323 258.291595,154.830292 
	C256.444122,154.662842 254.745911,153.691833 254.552139,151.425705 
	C254.378784,149.398361 255.738907,148.411423 257.303192,147.686996 
	C263.191772,144.960022 264.386200,140.099380 263.242737,134.336899 
	C257.605560,105.929115 251.134506,77.724060 242.458298,50.064510 
	C241.060364,45.607918 239.352509,41.859108 233.354874,43.912819 
	C230.778275,44.795094 229.365356,42.856815 228.778732,40.509647 
	C228.167480,38.063900 228.919327,36.154129 231.452621,35.395451 
	C235.592850,34.155529 239.729355,32.846687 243.945984,31.927155 
	C282.467346,23.526680 321.573212,18.182669 360.094604,9.771725 
	C362.524933,9.241073 365.077362,8.493060 367.011841,11.587812 
z"/>
<path fill="#000000" opacity="1.000000" stroke="none" 
	d="
M809.699829,60.654434 
	C804.566162,67.697708 800.276123,74.805420 797.101013,82.565994 
	C796.390747,84.301994 795.930542,86.921387 793.138489,85.947571 
	C790.619080,85.068893 790.422852,82.779373 791.117798,80.508163 
	C793.132935,73.922653 794.094727,67.214195 793.918518,60.318092 
	C793.605042,48.052422 789.143555,42.459648 777.109192,40.724461 
	C770.052002,39.706924 762.818054,39.291748 756.068359,42.753078 
	C747.812256,46.986870 744.636536,54.151844 747.161682,63.150780 
	C750.302063,74.342171 756.840332,83.944405 761.867310,94.249687 
	C765.369934,101.430023 769.334106,108.383759 772.988037,115.492172 
	C775.613525,120.599770 779.179077,124.075996 785.394897,123.899696 
	C787.603394,123.837051 789.892822,124.348740 790.811279,126.706161 
	C791.757690,129.135239 789.636963,130.356018 788.187988,131.583755 
	C784.046265,135.093185 783.569275,139.318054 785.074219,144.234756 
	C788.981445,156.999268 792.281128,169.940720 791.240417,183.421951 
	C789.726074,203.040497 783.904053,220.709900 766.518860,232.336578 
	C755.562683,239.663681 743.279297,241.049316 730.602112,239.109283 
	C717.530396,237.108871 705.018616,233.140610 693.345032,226.785263 
	C689.365234,224.618561 685.733521,222.012970 682.887146,218.412186 
	C680.233154,215.054642 680.127686,211.775543 683.000916,208.494125 
	C691.914490,198.314423 700.231140,187.728714 705.764404,175.229843 
	C706.444641,173.693329 707.502747,172.395706 709.089294,171.628769 
	C710.637512,170.880325 712.268799,170.308929 713.860168,171.229370 
	C715.667542,172.274780 715.998108,174.097961 715.735291,176.025452 
	C715.077942,180.845383 713.310059,185.345856 711.706055,189.895065 
	C710.046204,194.602417 708.467163,199.338287 706.804016,204.044434 
	C701.933350,217.826630 709.696167,224.909073 720.925415,227.455200 
	C742.652222,232.381577 757.608582,217.697372 754.158936,195.658875 
	C751.917053,181.336411 746.530029,168.130402 741.344482,154.808655 
	C738.816650,148.314514 734.055481,144.634262 726.923401,144.383896 
	C725.222839,144.324203 723.458740,144.294586 722.680176,142.438232 
	C721.779602,140.291107 723.369324,139.079620 724.668701,137.773285 
	C730.530701,131.879807 730.906250,129.626389 727.771790,121.821648 
	C722.413757,108.480194 718.139099,94.768616 716.983704,80.408997 
	C714.280029,46.805714 734.769226,27.645924 767.245605,29.391920 
	C783.111816,30.244919 797.970581,34.817944 812.470947,40.841534 
	C819.959900,43.952511 820.249329,45.331543 815.646240,52.179417 
	C813.788208,54.943439 811.828979,57.639397 809.699829,60.654434 
z"/>
<path fill="#000000" opacity="1.000000" stroke="none" 
	d="
M623.581543,17.299610 
	C619.991150,16.800020 615.484436,17.272413 616.175598,12.416034 
	C616.776733,8.192277 620.438477,7.045076 624.665649,7.577730 
	C644.305420,10.052460 663.961121,12.401047 683.611084,14.795342 
	C687.592712,15.280499 689.720093,17.402508 689.128723,21.522026 
	C688.591003,25.268255 685.944336,26.322229 682.553284,25.998854 
	C675.341919,25.311178 673.857727,26.218210 672.616943,33.396011 
	C670.067322,48.146038 667.654236,62.921066 665.344910,77.710793 
	C663.448364,89.857124 662.029053,102.082443 659.918579,114.189133 
	C658.748840,120.898972 661.071716,125.492767 666.453613,129.027618 
	C668.247925,130.206131 670.541931,131.194199 670.013855,133.868652 
	C669.503052,136.455551 667.117004,136.849335 664.969788,137.205505 
	C659.810974,138.061188 657.017944,141.317886 656.293945,146.219666 
	C655.273865,153.125977 654.474670,160.071960 653.817505,167.023331 
	C652.486084,181.106201 651.280762,195.201370 650.098938,209.297775 
	C649.806458,212.786392 649.446777,216.279037 653.739624,218.157272 
	C655.607239,218.974411 655.458008,221.279755 654.956482,223.105484 
	C654.351135,225.309540 652.568726,225.695419 650.586365,225.432877 
	C642.347534,224.341736 634.127136,223.094070 625.872009,222.147186 
	C616.460510,221.067642 607.018433,220.255203 597.591797,219.306000 
	C595.941895,219.139862 594.285034,218.956635 592.662964,218.626190 
	C591.135498,218.315018 589.812073,217.648193 589.650391,215.789307 
	C589.498352,214.041138 590.479492,212.970352 591.819397,212.156555 
	C592.669556,211.640182 593.565186,211.003403 594.506348,210.863174 
	C601.737000,209.785873 603.621094,204.460526 604.514343,198.382767 
	C607.269287,179.637253 609.928162,160.877502 612.738892,142.140457 
	C613.616394,136.290222 612.243347,131.673676 606.933350,128.475082 
	C604.822205,127.203400 602.458984,125.610191 603.018860,122.644241 
	C603.574463,119.701355 606.377502,119.929672 608.606506,119.419731 
	C613.406860,118.321510 616.014954,115.066727 616.767090,110.391479 
	C618.481567,99.734787 620.208252,89.075340 621.625122,78.376640 
	C623.652649,63.067360 625.462830,47.728378 627.237549,32.387245 
	C627.637695,28.928387 627.558716,25.409109 627.607849,21.916346 
	C627.642273,19.469780 626.618286,17.737228 623.581543,17.299610 
z"/>
<path fill="#000000" opacity="1.000000" stroke="none" 
	d="
M419.710083,417.721161 
	C429.763306,404.537384 437.143372,390.120850 445.353973,376.218658 
	C450.690063,367.183624 455.954468,358.105804 461.190155,349.012085 
	C462.747986,346.306335 464.675507,343.739563 465.212036,340.021851 
	C456.485443,336.026306 447.379517,334.984619 438.059265,336.741455 
	C433.399353,337.619843 432.864655,340.003723 435.743805,343.663727 
	C436.231659,344.283844 436.594482,345.002319 437.101898,345.814301 
	C434.728271,348.226532 432.711548,347.143402 430.935059,345.502747 
	C428.655151,343.397156 427.845795,340.734772 429.102905,337.779114 
	C430.502533,334.488403 433.281189,332.765411 436.520294,331.546661 
	C443.787628,328.812256 451.263031,329.705383 458.151276,331.891327 
	C467.506622,334.860229 472.491760,331.717224 477.304871,323.687500 
	C487.574951,306.553864 498.480408,289.741882 512.897583,275.620300 
	C514.673157,273.881195 516.522949,272.120331 518.621033,270.828888 
	C522.647583,268.350433 526.264648,270.069031 527.150635,274.734772 
	C527.620178,277.207489 527.265137,279.687317 526.820374,282.174683 
	C523.101013,302.974609 517.265381,323.322449 513.745422,344.171997 
	C511.358124,358.312378 509.898621,372.545471 509.544708,386.831329 
	C509.331360,395.442444 510.572876,404.130920 514.320984,412.126892 
	C516.027649,415.767792 517.805115,419.401001 523.239990,417.905823 
	C526.150940,417.105011 526.769470,420.283386 528.024902,422.096344 
	C532.749451,420.898712 537.385559,419.667755 542.050964,418.560150 
	C545.221924,417.807343 546.000061,415.240326 546.725891,412.662262 
	C550.830139,398.084229 554.552612,383.388794 559.044617,368.932068 
	C566.157104,346.041321 573.793030,323.313477 581.148438,300.497650 
	C581.829102,298.386475 583.378174,296.305359 581.810120,293.284058 
	C573.744385,294.732971 565.896667,296.970520 558.611877,301.111969 
	C556.330322,302.409119 553.511963,305.606689 551.351929,302.182220 
	C549.158203,298.704254 552.945007,296.876862 555.427063,295.461884 
	C563.296143,290.975983 571.929504,288.348114 580.599304,285.974548 
	C584.016907,285.038940 586.548523,283.730865 588.333679,280.442688 
	C590.530823,276.395477 592.647827,276.298523 595.308594,279.818695 
	C596.583740,281.505676 597.769592,281.641296 599.567383,281.126404 
	C608.525269,278.560516 617.803162,277.187073 626.551819,273.818970 
	C628.817261,272.946838 631.662109,271.456329 632.845276,274.998718 
	C633.933960,278.258606 631.026489,279.497864 628.724182,280.183716 
	C620.433838,282.653259 612.162964,285.418060 603.682373,286.954712 
	C595.047241,288.519379 590.736145,292.989044 588.160889,301.326538 
	C577.256226,336.630402 565.359070,371.628113 555.712830,407.318878 
	C555.365601,408.603516 555.013794,409.887024 554.650574,411.167236 
	C553.582031,414.933167 555.300232,416.202515 558.775208,415.538544 
	C564.985168,414.352020 571.151184,412.989990 577.103455,410.758301 
	C579.527405,409.849548 582.624695,408.371521 583.917786,411.988007 
	C585.132141,415.384216 582.130615,416.550568 579.620850,417.570618 
	C570.756836,421.173462 561.361938,422.631714 552.001404,424.085236 
	C547.547852,424.776855 542.860168,425.011078 538.852539,426.837708 
	C532.442139,429.759583 526.266235,428.113190 520.264160,426.695923 
	C512.861755,424.947998 508.753235,419.097870 506.389099,412.144958 
	C501.608368,398.084747 502.437805,383.567566 503.225922,369.091705 
	C503.514923,363.783478 504.210938,358.494385 504.818878,353.207764 
	C505.194061,349.945404 504.207458,348.389160 500.595276,348.113190 
	C493.617920,347.580170 486.700836,346.233795 480.152008,343.761871 
	C475.470245,341.994690 472.896637,343.293610 470.470337,347.479919 
	C458.359131,368.376404 446.045074,389.155670 433.740295,409.939423 
	C430.001312,416.254852 425.988678,422.406708 420.442535,427.344635 
	C414.100708,432.991058 408.902069,431.448792 407.174255,423.205383 
	C405.926392,417.251923 406.293793,411.275208 408.692841,405.558105 
	C409.719299,403.111969 411.331604,401.292725 414.114197,400.943573 
	C415.782715,400.734222 417.033722,401.517456 417.752930,403.012573 
	C418.409851,404.378265 417.402191,405.107147 416.552856,405.947723 
	C412.581909,409.877594 411.725067,416.326660 414.365326,422.316650 
	C417.099548,422.103912 417.867523,419.533783 419.710083,417.721161 
M484.465637,338.052948 
	C489.763062,339.503265 495.093811,340.563904 500.634369,340.770477 
	C504.751709,340.924011 506.714844,339.235504 507.588348,335.370483 
	C510.516052,322.416138 513.695312,309.517883 516.543579,296.546661 
	C517.657654,291.472839 519.421448,286.445007 519.102722,279.937500 
	C501.688538,296.464417 490.929626,316.499420 477.697144,335.743408 
	C480.362000,336.666779 482.040558,337.248413 484.465637,338.052948 
z"/>
</symbol>

	<!-- place the symbol where needed -->
<use xlink:href="#rd-icon-spotter" href="#rd-icon-spotter" x="0" y="0" />
</svg>
