<svg version="1.1" id="Layer_1" xmlns="http://www.w3.org/2000/svg" xmlns:xlink="http://www.w3.org/1999/xlink" x="0px" y="0px"
	 width="255" height="255" viewBox="0 0 48 48" enable-background="new 0 0 48 48" xml:space="preserve">
	 <symbol id="rd-icon-spotter">
<path fill="#F8F5FD" opacity="1.000000" stroke="none" 
	d="
M256.000000,64.000000 
	C256.000000,128.333328 256.000000,192.166672 256.000000,256.000000 
	C171.000000,256.000000 86.000000,256.000000 1.000000,256.000000 
	C1.000000,171.000000 1.000000,86.000000 1.000000,1.000000 
	C86.000000,1.000000 171.000000,1.000000 256.000000,1.000000 
	C256.000000,21.833334 256.000000,42.666668 256.000000,64.000000 
M3.331549,105.865387 
	C3.424709,112.909744 3.517869,119.954094 3.319689,127.890099 
	C3.418575,136.596542 3.517461,145.302994 3.329917,154.900681 
	C3.426173,162.600647 3.522429,170.300613 3.326853,178.891479 
	C3.453693,188.270416 3.580534,197.649368 3.538507,207.944458 
	C3.133786,220.724152 5.791424,232.474625 15.256343,242.644424 
	C22.040813,249.760162 30.197899,253.270599 40.180084,253.221954 
	C74.156219,253.056320 108.133652,253.158218 142.110596,253.157913 
	C167.426743,253.157684 192.743027,253.202316 218.059006,253.137634 
	C230.276169,253.106415 242.601837,245.110901 246.808960,234.748413 
	C248.671967,229.535828 250.534973,224.323227 252.745178,218.360184 
	C252.829300,208.573349 252.913406,198.786530 253.145157,188.071915 
	C253.097733,176.047958 253.050308,164.024017 253.154266,151.072739 
	C253.104202,141.715179 253.054138,132.357635 253.162033,122.077316 
	C253.109589,117.051552 253.057159,112.025795 253.169418,106.076736 
	C253.115540,100.717934 253.061661,95.359138 253.168945,89.075188 
	C253.114288,83.050186 253.059631,77.025177 253.172165,70.075233 
	C253.116455,62.383572 253.060730,54.691910 253.158539,46.140396 
	C252.808914,43.749519 252.195877,41.363403 252.152542,38.966988 
	C251.879181,23.849392 238.013260,8.001017 222.331604,5.440371 
	C220.515320,5.301234 218.699081,5.041145 216.882751,5.040494 
	C157.855545,5.019341 98.828339,5.013312 39.801178,5.060526 
	C37.522182,5.062349 35.243626,5.611703 32.194149,5.880878 
	C14.639130,10.266943 2.274954,28.470734 3.318596,48.860218 
	C3.418226,58.896000 3.517856,68.931786 3.326001,79.869591 
	C3.426789,88.234482 3.527577,96.599365 3.331549,105.865387 
z"/>
<path fill="#5C30CA" opacity="1.000000" stroke="none" 
	d="
M3.614583,47.958607 
	C2.274954,28.470734 14.639130,10.266943 32.876221,6.191963 
	C34.863964,6.657579 36.169590,6.946805 37.475319,6.947289 
	C97.786018,6.969668 158.096725,6.975151 218.407379,6.920400 
	C219.955093,6.918995 221.502197,6.225177 223.049576,5.854277 
	C238.013260,8.001017 251.879181,23.849392 252.152542,38.966988 
	C252.195877,41.363403 252.808914,43.749519 252.612823,46.570747 
	C243.959076,47.332230 235.851654,47.929157 227.742905,47.947582 
	C195.976822,48.019764 164.210312,47.909332 132.428864,47.413719 
	C132.521759,43.973660 132.936646,40.959942 132.679688,38.004639 
	C131.936264,29.454332 127.075714,26.146921 118.583588,27.836535 
	C115.929253,28.364647 115.226303,29.469572 115.168167,32.169018 
	C115.040085,38.116840 114.352325,44.052612 113.477684,49.981377 
	C105.810982,50.064533 98.559563,50.159615 91.150620,49.948631 
	C90.647774,48.531666 90.315323,47.416580 89.955200,46.310501 
	C85.724617,33.316742 77.225029,26.367023 63.612442,25.848680 
	C56.682400,25.584797 49.672821,26.353716 42.752529,27.130762 
	C31.655424,28.376801 30.147694,30.091763 29.279531,41.274841 
	C29.114790,43.396919 29.520523,45.563282 29.157764,47.784714 
	C20.306522,47.893013 11.960552,47.925808 3.614583,47.958607 
z"/>
<path fill="#8054E8" opacity="1.000000" stroke="none" 
	d="
M252.397980,219.110641 
	C250.534973,224.323227 248.671967,229.535828 246.175751,234.702820 
	C243.742111,234.104843 241.904434,232.986908 240.147995,233.102585 
	C234.059006,233.503601 228.012115,234.660645 221.923309,234.918472 
	C214.033203,235.252548 206.111481,235.212799 198.215256,234.961044 
	C172.007568,234.125504 145.826523,235.126480 119.549194,233.501724 
	C86.223526,231.441147 52.673771,232.973618 19.221001,233.073990 
	C17.120996,233.080276 15.024041,234.103760 13.223124,234.576019 
	C13.949028,237.631622 14.470974,239.828690 14.992920,242.025757 
	C5.791424,232.474625 3.133786,220.724152 4.020528,207.447235 
	C7.926611,204.208984 11.858884,203.916702 16.114513,203.931122 
	C52.095779,204.052917 88.077629,203.994202 124.059303,204.008224 
	C128.902573,204.010101 133.958328,203.127914 137.964447,207.366180 
	C134.957703,215.014389 131.966980,222.294617 128.840973,229.904221 
	C154.365845,229.904221 179.098114,229.904221 204.502213,229.904221 
	C201.230789,221.626892 198.141571,213.810593 195.416336,205.949234 
	C198.910324,204.937759 202.006989,203.397385 205.182419,203.212906 
	C207.196518,203.095886 209.327881,204.996597 211.543060,206.441315 
	C211.679489,214.468750 211.679489,222.047256 211.679489,229.775604 
	C220.564682,229.775604 228.732498,229.775604 237.496643,229.775604 
	C237.496643,225.582108 237.496643,221.788544 237.838867,217.979218 
	C238.499374,217.885681 238.915894,217.911026 239.121597,217.715057 
	C244.837845,212.269943 245.831406,212.358139 250.996536,218.695984 
	C251.250671,219.007797 251.921295,218.980194 252.397980,219.110641 
z"/>
<path fill="#8056EC" opacity="1.000000" stroke="none" 
	d="
M15.124632,242.335083 
	C14.470974,239.828690 13.949028,237.631622 13.223124,234.576019 
	C15.024041,234.103760 17.120996,233.080276 19.221001,233.073990 
	C52.673771,232.973618 86.223526,231.441147 119.549194,233.501724 
	C145.826523,235.126480 172.007568,234.125504 198.215256,234.961044 
	C206.111481,235.212799 214.033203,235.252548 221.923309,234.918472 
	C228.012115,234.660645 234.059006,233.503601 240.147995,233.102585 
	C241.904434,232.986908 243.742111,234.104843 245.874634,234.884216 
	C242.601837,245.110901 230.276169,253.106415 218.059006,253.137634 
	C192.743027,253.202316 167.426743,253.157684 142.110596,253.157913 
	C108.133652,253.158218 74.156219,253.056320 40.180084,253.221954 
	C30.197899,253.270599 22.040813,249.760162 15.124632,242.335083 
z"/>
<path fill="#7A4CE2" opacity="1.000000" stroke="none" 
	d="
M137.980499,206.998215 
	C133.958328,203.127914 128.902573,204.010101 124.059303,204.008224 
	C88.077629,203.994202 52.095779,204.052917 16.114513,203.931122 
	C11.858884,203.916702 7.926611,204.208984 4.104962,206.989166 
	C3.580534,197.649368 3.453693,188.270416 3.846718,178.421082 
	C6.152506,177.633972 7.938116,177.042709 9.724396,177.040695 
	C54.541451,176.989807 99.358681,176.969406 144.175293,177.119019 
	C145.930130,177.124878 147.679199,178.861191 149.373993,180.117035 
	C145.538193,189.294662 141.759354,198.146439 137.980499,206.998215 
z"/>
<path fill="#7647DC" opacity="1.000000" stroke="none" 
	d="
M149.430969,179.791199 
	C147.679199,178.861191 145.930130,177.124878 144.175293,177.119019 
	C99.358681,176.969406 54.541451,176.989807 9.724396,177.040695 
	C7.938116,177.042709 6.152506,177.633972 3.992635,177.975632 
	C3.522429,170.300613 3.426173,162.600647 3.854343,154.446716 
	C8.324289,153.661819 12.269384,153.049072 16.215397,153.043106 
	C61.114834,152.975220 106.014565,153.049637 150.913666,152.908279 
	C154.613144,152.896622 157.281479,153.661835 158.962936,157.359528 
	C155.775238,165.080154 152.603104,172.435684 149.430969,179.791199 
z"/>
<path fill="#7445D8" opacity="1.000000" stroke="none" 
	d="
M158.978500,156.994415 
	C157.281479,153.661835 154.613144,152.896622 150.913666,152.908279 
	C106.014565,153.049637 61.114834,152.975220 16.215397,153.043106 
	C12.269384,153.049072 8.324289,153.661819 3.997557,154.001099 
	C3.517461,145.302994 3.418575,136.596542 3.842669,127.439285 
	C7.431817,126.689423 10.494325,126.342094 13.565516,126.109360 
	C15.426953,125.968292 17.301834,126.004608 19.387440,126.222092 
	C23.040642,135.386322 32.901436,142.042908 40.904362,140.666138 
	C52.340569,138.698730 62.958019,134.954010 71.402512,126.176003 
	C81.569466,126.879013 91.354538,127.415802 101.401863,128.153915 
	C105.612053,134.465073 110.460091,138.755859 118.486206,138.205872 
	C124.418091,137.799362 130.400223,138.125977 136.359955,138.125977 
	C136.127853,138.504288 135.895737,138.882599 135.663620,139.260910 
	C137.311813,140.821915 138.728226,143.239288 140.657578,143.761459 
	C144.404495,144.775558 148.976303,146.494873 150.905014,140.583160 
	C151.245041,139.540985 152.221176,138.706329 153.054916,138.095047 
	C154.484421,138.601746 155.895386,139.234543 157.017746,138.899780 
	C161.909988,137.440582 162.964890,137.986893 164.064636,143.556305 
	C162.364197,148.287918 160.671356,152.641174 158.978500,156.994415 
z"/>
<path fill="#6335CD" opacity="1.000000" stroke="none" 
	d="
M132.443970,47.866749 
	C164.210312,47.909332 195.976822,48.019764 227.742905,47.947582 
	C235.851654,47.929157 243.959076,47.332230 252.536072,47.000671 
	C253.060730,54.691910 253.116455,62.383572 252.701508,70.488007 
	C249.727417,70.267181 247.218338,69.068832 244.721436,69.093636 
	C230.783554,69.232155 216.844208,69.540123 202.913651,70.027657 
	C177.744583,70.908493 152.483261,67.897484 127.424286,71.417297 
	C129.121094,63.294880 130.782532,55.580814 132.443970,47.866749 
z"/>
<path fill="#6739D0" opacity="1.000000" stroke="none" 
	d="
M127.388916,71.825653 
	C152.483261,67.897484 177.744583,70.908493 202.913651,70.027657 
	C216.844208,69.540123 230.783554,69.232155 244.721436,69.093636 
	C247.218338,69.068832 249.727417,70.267181 252.617920,70.950470 
	C253.059631,77.025177 253.114288,83.050186 252.659058,89.536613 
	C246.534271,89.666588 240.914062,89.021843 235.306396,89.116882 
	C231.733246,89.177444 228.180786,90.899109 224.615479,90.912315 
	C190.331619,91.039230 156.047028,90.961075 121.777611,90.549240 
	C123.658028,84.046448 125.523468,77.936050 127.388916,71.825653 
z"/>
<path fill="#6C3DD2" opacity="1.000000" stroke="none" 
	d="
M121.762634,90.941628 
	C156.047028,90.961075 190.331619,91.039230 224.615479,90.912315 
	C228.180786,90.899109 231.733246,89.177444 235.306396,89.116882 
	C240.914062,89.021843 246.534271,89.666588 252.578461,89.999191 
	C253.061661,95.359138 253.115540,100.717934 252.663879,106.527695 
	C249.214722,106.652435 246.252228,105.931870 243.330887,106.071571 
	C233.284912,106.551987 223.261032,107.710991 213.214523,107.916534 
	C195.625870,108.276390 178.026703,108.121361 160.257141,107.900818 
	C157.635513,102.059616 152.779160,102.569176 148.153076,103.175102 
	C143.548538,103.778198 145.841217,107.899948 144.994339,110.411293 
	C144.522827,111.809593 144.653595,113.441963 144.048706,114.754974 
	C143.520966,115.900482 142.364227,117.571747 141.448410,117.595703 
	C133.074646,117.814758 124.692787,117.724480 114.838623,117.724480 
	C117.334373,108.070641 119.548500,99.506134 121.762634,90.941628 
z"/>
<path fill="#7242D7" opacity="1.000000" stroke="none" 
	d="
M164.072220,143.177917 
	C162.964890,137.986893 161.909988,137.440582 157.017746,138.899780 
	C155.895386,139.234543 154.484421,138.601746 153.105896,137.749557 
	C154.823654,132.675949 156.641815,128.267044 158.915009,123.889229 
	C163.474915,123.613556 167.578217,123.069244 171.684952,123.042107 
	C187.435287,122.938057 203.188004,123.110733 218.936920,122.928818 
	C223.347794,122.877869 227.737625,121.820534 232.156769,121.480507 
	C239.166626,120.941124 246.263138,119.675766 253.004059,123.000084 
	C253.054138,132.357635 253.104202,141.715179 252.667511,151.482941 
	C247.288696,151.926697 242.396652,151.960266 237.411606,151.543121 
	C237.318604,148.528503 237.318604,145.964600 237.318604,142.978073 
	C229.671646,142.978073 222.782761,143.157593 215.910385,142.898819 
	C212.698563,142.777878 211.422638,143.962891 211.020691,146.953766 
	C208.364868,146.628723 206.089096,146.060562 203.809052,146.042908 
	C192.521362,145.955566 181.232559,146.013672 169.698471,145.790878 
	C168.667938,143.815948 167.883072,142.070648 167.124207,140.383163 
	C165.914154,141.491211 164.993195,142.334564 164.072220,143.177917 
z"/>
<path fill="#6E3FD4" opacity="1.000000" stroke="none" 
	d="
M253.083038,122.538696 
	C246.263138,119.675766 239.166626,120.941124 232.156769,121.480507 
	C227.737625,121.820534 223.347794,122.877869 218.936920,122.928818 
	C203.188004,123.110733 187.435287,122.938057 171.684952,123.042107 
	C167.578217,123.069244 163.474915,123.613556 158.983353,123.480095 
	C159.208435,118.087250 159.820190,113.134651 160.431931,108.182037 
	C178.026703,108.121361 195.625870,108.276390 213.214523,107.916534 
	C223.261032,107.710991 233.284912,106.551987 243.330887,106.071571 
	C246.252228,105.931870 249.214722,106.652435 252.581528,106.989349 
	C253.057159,112.025795 253.109589,117.051552 253.083038,122.538696 
z"/>
<path fill="#6437CE" opacity="1.000000" stroke="none" 
	d="
M3.466589,48.409412 
	C11.960552,47.925808 20.306522,47.893013 29.462883,47.967422 
	C32.062889,48.670067 33.852501,49.265495 36.567421,50.168789 
	C33.826740,59.864555 31.105349,69.492081 27.938068,79.079765 
	C19.533949,79.015808 11.575718,78.991692 3.617486,78.967567 
	C3.517856,68.931786 3.418226,58.896000 3.466589,48.409412 
z"/>
<path fill="#7748DE" opacity="1.000000" stroke="none" 
	d="
M237.504608,151.993851 
	C242.396652,151.960266 247.288696,151.926697 252.591827,151.946594 
	C253.050308,164.024017 253.097733,176.047958 252.709686,188.471725 
	C249.940735,185.389740 246.348755,185.754929 242.963470,186.111145 
	C241.097992,186.307419 239.320419,187.339020 237.409241,187.534515 
	C237.378372,175.381287 237.441498,163.687576 237.504608,151.993851 
z"/>
<path fill="#693AD1" opacity="1.000000" stroke="none" 
	d="
M3.471744,79.418579 
	C11.575718,78.991692 19.533949,79.015808 27.931246,79.488632 
	C26.015448,88.299286 23.660585,96.661240 20.890768,105.011116 
	C14.865927,102.114563 9.249146,102.570839 3.628366,104.964256 
	C3.527577,96.599365 3.426789,88.234482 3.471744,79.418579 
z"/>
<path fill="#7C4FE5" opacity="1.000000" stroke="none" 
	d="
M237.503204,187.994034 
	C239.320419,187.339020 241.097992,186.307419 242.963470,186.111145 
	C246.348755,185.754929 249.940735,185.389740 252.635864,188.935608 
	C252.913406,198.786530 252.829300,208.573349 252.571579,218.735413 
	C251.921295,218.980194 251.250671,219.007797 250.996536,218.695984 
	C245.831406,212.358139 244.837845,212.269943 239.121597,217.715057 
	C238.915894,217.911026 238.499374,217.885681 237.742706,217.519775 
	C237.370621,207.382050 237.436920,197.688034 237.503204,187.994034 
z"/>
<path fill="#6845D1" opacity="1.000000" stroke="none" 
	d="
M222.690582,5.647324 
	C221.502197,6.225177 219.955093,6.918995 218.407379,6.920400 
	C158.096725,6.975151 97.786018,6.969668 37.475319,6.947289 
	C36.169590,6.946805 34.863964,6.657579 33.261578,6.204486 
	C35.243626,5.611703 37.522182,5.062349 39.801178,5.060526 
	C98.828339,5.013312 157.855545,5.019341 216.882751,5.040494 
	C218.699081,5.041145 220.515320,5.301234 222.690582,5.647324 
z"/>
<path fill="#6E3FD4" opacity="1.000000" stroke="none" 
	d="
M3.479958,105.414825 
	C9.249146,102.570839 14.865927,102.114563 20.893320,105.428207 
	C20.597443,112.558662 19.884058,119.259949 19.170673,125.961235 
	C17.301834,126.004608 15.426953,125.968292 13.565516,126.109360 
	C10.494325,126.342094 7.431817,126.689423 3.988339,126.993454 
	C3.517869,119.954094 3.424709,112.909744 3.479958,105.414825 
z"/>
<path fill="#FBFAFE" opacity="1.000000" stroke="none" 
	d="
M19.387440,126.222092 
	C19.884058,119.259949 20.597443,112.558662 21.308275,105.440292 
	C23.660585,96.661240 26.015448,88.299286 28.377134,79.528458 
	C31.105349,69.492081 33.826740,59.864555 36.567421,50.168789 
	C33.852501,49.265495 32.062889,48.670067 29.968157,47.891922 
	C29.520523,45.563282 29.114790,43.396919 29.279531,41.274841 
	C30.147694,30.091763 31.655424,28.376801 42.752529,27.130762 
	C49.672821,26.353716 56.682400,25.584797 63.612442,25.848680 
	C77.225029,26.367023 85.724617,33.316742 89.955200,46.310501 
	C90.315323,47.416580 90.647774,48.531666 91.120552,50.394001 
	C91.494545,55.602573 92.337814,60.124756 91.860603,64.503006 
	C90.930923,73.032455 89.261620,81.481285 87.662552,90.241333 
	C83.865547,103.231216 79.436455,115.541946 71.020630,126.009781 
	C62.958019,134.954010 52.340569,138.698730 40.904362,140.666138 
	C32.901436,142.042908 23.040642,135.386322 19.387440,126.222092 
M39.696934,102.644470 
	C38.867226,106.196686 37.901749,109.723763 37.238537,113.306793 
	C36.149921,119.188042 37.305904,120.580055 43.346313,119.877594 
	C54.179943,118.617714 60.104374,111.415779 64.513870,101.504059 
	C65.922035,97.124664 67.188568,92.693527 68.765869,88.375923 
	C72.910828,77.029724 74.552681,65.320526 74.477707,53.282845 
	C74.456032,49.803532 72.825111,48.193394 69.741852,47.330471 
	C62.553398,45.318607 55.424606,46.088356 48.501106,46.957645 
	C49.341293,50.703575 50.710335,53.895515 50.612572,57.041882 
	C50.459126,61.980629 49.717636,66.989700 48.509220,71.788712 
	C45.958130,81.919899 42.943623,91.934402 39.696934,102.644470 
z"/>
<path fill="#FBFAFE" opacity="1.000000" stroke="none" 
	d="
M160.257141,107.900826 
	C159.820190,113.134651 159.208435,118.087250 158.528320,123.448990 
	C156.641815,128.267044 154.823654,132.675949 152.954529,137.430359 
	C152.221176,138.706329 151.245041,139.540985 150.905014,140.583160 
	C148.976303,146.494873 144.404495,144.775558 140.657578,143.761459 
	C138.728226,143.239288 137.311813,140.821915 135.663620,139.260910 
	C135.895737,138.882599 136.127853,138.504288 136.359955,138.125977 
	C130.400223,138.125977 124.418091,137.799362 118.486206,138.205872 
	C110.460091,138.755859 105.612053,134.465073 101.344734,127.766968 
	C98.212097,120.891800 98.161346,114.396515 99.575562,107.795082 
	C100.610420,102.964470 101.661461,98.137337 102.872314,92.985245 
	C103.942947,88.824074 104.779884,84.969139 105.762962,81.151848 
	C108.439926,70.757156 111.178696,60.378384 113.892967,49.993301 
	C114.352325,44.052612 115.040085,38.116840 115.168167,32.169018 
	C115.226303,29.469572 115.929253,28.364647 118.583588,27.836535 
	C127.075714,26.146921 131.936264,29.454332 132.679688,38.004639 
	C132.936646,40.959942 132.521759,43.973660 132.428864,47.413719 
	C130.782532,55.580814 129.121094,63.294880 127.424286,71.417297 
	C125.523468,77.936050 123.658028,84.046448 121.777611,90.549240 
	C119.548500,99.506134 117.334373,108.070641 114.838623,117.724480 
	C124.692787,117.724480 133.074646,117.814758 141.448410,117.595703 
	C142.364227,117.571747 143.520966,115.900482 144.048706,114.754974 
	C144.653595,113.441963 144.522827,111.809593 144.994339,110.411293 
	C145.841217,107.899948 143.548538,103.778198 148.153076,103.175102 
	C152.779160,102.569176 157.635513,102.059616 160.257141,107.900826 
z"/>
<path fill="#6537CE" opacity="1.000000" stroke="none" 
	d="
M113.477684,49.981377 
	C111.178696,60.378384 108.439926,70.757156 105.762962,81.151848 
	C104.779884,84.969139 103.942947,88.824074 102.445038,92.881371 
	C98.431328,92.703743 94.988052,92.441277 91.604599,91.841370 
	C90.299332,91.609932 89.129929,90.612137 87.898628,89.963509 
	C89.261620,81.481285 90.930923,73.032455 91.860603,64.503006 
	C92.337814,60.124756 91.494545,55.602573 91.278076,50.700069 
	C98.559563,50.159615 105.810982,50.064533 113.477684,49.981377 
z"/>
<path fill="#FEFDFF" opacity="1.000000" stroke="none" 
	d="
M164.064636,143.556305 
	C164.993195,142.334564 165.914154,141.491211 167.124207,140.383163 
	C167.883072,142.070648 168.667938,143.815948 169.724823,146.161835 
	C174.144409,156.562057 178.291977,166.361694 182.527191,176.534332 
	C186.760666,186.602966 190.906509,196.298630 195.052368,205.994293 
	C198.141571,213.810593 201.230789,221.626892 204.502213,229.904221 
	C179.098114,229.904221 154.365845,229.904221 128.840973,229.904221 
	C131.966980,222.294617 134.957703,215.014389 137.964447,207.366180 
	C141.759354,198.146439 145.538193,189.294662 149.374008,180.117035 
	C152.603104,172.435684 155.775238,165.080154 158.962936,157.359528 
	C160.671356,152.641174 162.364197,148.287918 164.064636,143.556305 
z"/>
<path fill="#FFFEFF" opacity="1.000000" stroke="none" 
	d="
M237.409225,187.534515 
	C237.436920,197.688034 237.370621,207.382050 237.400482,217.535507 
	C237.496643,221.788544 237.496643,225.582108 237.496643,229.775604 
	C228.732498,229.775604 220.564682,229.775604 211.679489,229.775604 
	C211.679489,222.047256 211.679489,214.468750 211.669525,205.987885 
	C211.572083,195.391312 211.484589,185.697098 211.527390,175.549911 
	C211.571396,165.719452 211.485092,156.341965 211.398788,146.964462 
	C211.422638,143.962891 212.698563,142.777878 215.910385,142.898819 
	C222.782761,143.157593 229.671646,142.978073 237.318604,142.978073 
	C237.318604,145.964600 237.318604,148.528503 237.411621,151.543121 
	C237.441498,163.687576 237.378372,175.381287 237.409225,187.534515 
z"/>
<path fill="#7A4CE1" opacity="1.000000" stroke="none" 
	d="
M211.397095,176.002869 
	C211.484589,185.697098 211.572083,195.391312 211.533112,205.538971 
	C209.327881,204.996597 207.196518,203.095886 205.182419,203.212906 
	C202.006989,203.397385 198.910324,204.937759 195.416351,205.949234 
	C190.906509,196.298630 186.760666,186.602966 182.995590,176.486084 
	C192.716599,176.044189 202.056854,176.023529 211.397095,176.002869 
z"/>
<path fill="#6F41D3" opacity="1.000000" stroke="none" 
	d="
M87.662552,90.241333 
	C89.129929,90.612137 90.299332,91.609932 91.604599,91.841370 
	C94.988052,92.441277 98.431328,92.703743 102.278000,93.204773 
	C101.661461,98.137337 100.610420,102.964470 99.575562,107.795082 
	C98.161346,114.396515 98.212097,120.891800 101.082489,127.565643 
	C91.354538,127.415802 81.569466,126.879013 71.402512,126.176003 
	C79.436455,115.541946 83.865547,103.231216 87.662552,90.241333 
z"/>
<path fill="#7647DC" opacity="1.000000" stroke="none" 
	d="
M211.527390,175.549911 
	C202.056854,176.023529 192.716599,176.044189 182.907959,176.113098 
	C178.291977,166.361694 174.144409,156.562057 169.970490,146.391464 
	C181.232559,146.013672 192.521362,145.955566 203.809052,146.042908 
	C206.089096,146.060562 208.364868,146.628723 211.020691,146.953766 
	C211.485092,156.341965 211.571396,165.719452 211.527390,175.549911 
z"/>
<path fill="#683BCF" opacity="1.000000" stroke="none" 
	d="
M40.119232,101.996773 
	C42.943623,91.934402 45.958130,81.919899 48.509220,71.788712 
	C49.717636,66.989700 50.459126,61.980629 50.612572,57.041882 
	C50.710335,53.895515 49.341293,50.703575 48.501106,46.957645 
	C55.424606,46.088356 62.553398,45.318607 69.741852,47.330471 
	C72.825111,48.193394 74.456032,49.803532 74.477707,53.282845 
	C74.552681,65.320526 72.910828,77.029724 68.765869,88.375923 
	C67.188568,92.693527 65.922035,97.124664 63.905075,101.596031 
	C55.525772,98.426140 47.820278,100.044434 40.119232,101.996773 
z"/>
<path fill="#6F42D4" opacity="1.000000" stroke="none" 
	d="
M39.908085,102.320618 
	C47.820278,100.044434 55.525772,98.426140 63.649315,101.844421 
	C60.104374,111.415779 54.179943,118.617714 43.346313,119.877594 
	C37.305904,120.580055 36.149921,119.188042 37.238537,113.306793 
	C37.901749,109.723763 38.867226,106.196686 39.908085,102.320618 
z"/>
</symbol>

	<!-- place the symbol where needed -->
<use xlink:href="#rd-icon-spotter" href="#rd-icon-spotter" x="0" y="0" />
</svg>
