<svg version="1.1" id="Layer_1" xmlns="http://www.w3.org/2000/svg" xmlns:xlink="http://www.w3.org/1999/xlink" x="0px" y="0px"
	 width="100%" viewBox="0 0 51 51" enable-background="new 0 0 51 51" xml:space="preserve">
	 <symbol id="rd-icon-spotter">
<path fill="#835AE8" opacity="1.000000" stroke="none" 
	d="
M1.000000,49.000000 
	C1.000000,49.000000 1.000000,48.500000 1.335411,48.206047 
	C1.872763,46.261181 2.074703,44.610268 2.676079,42.956047 
	C11.322699,42.961315 19.569880,42.969887 27.764786,43.351467 
	C28.281507,44.783333 28.759968,46.683929 29.435043,46.756538 
	C32.492500,47.085396 35.629295,47.109692 38.683784,46.765987 
	C39.585827,46.664482 40.311890,44.999035 41.369522,44.060204 
	C41.953289,44.099468 42.286137,44.128807 42.661209,44.466934 
	C44.069939,45.627350 45.436447,46.478970 47.492775,47.760502 
	C47.791691,44.161457 47.965691,42.066448 48.512505,39.982361 
	C49.383339,40.040573 49.881367,40.087864 50.472313,40.555172 
	C50.703129,45.432728 50.156528,49.520699 44.597782,51.091251 
	C29.763912,50.087132 15.221467,52.960064 1.000000,49.000000 
z"/>
<path fill="#F5F3FC" opacity="1.000000" stroke="none" 
	d="
M1.000000,8.000000 
	C1.000000,5.684103 1.000000,3.368207 1.000000,1.031415 
	C18.000010,1.031415 35.000011,1.031415 52.000000,1.031415 
	C52.000000,3.378731 52.000000,5.694632 51.689613,8.518620 
	C51.173042,9.046326 50.966858,9.065945 50.490818,8.860435 
	C49.650181,4.022598 46.889416,2.105069 42.405453,2.121703 
	C31.957800,2.160462 21.508045,2.248399 11.062966,2.079621 
	C6.517165,2.006167 3.386483,3.586318 1.619687,7.929388 
	C1.410686,7.919816 1.000000,8.000000 1.000000,8.000000 
z"/>
<path fill="#EBE5FA" opacity="1.000000" stroke="none" 
	d="
M50.760674,9.085564 
	C50.966858,9.065945 51.173042,9.046326 51.689613,9.013353 
	C52.000000,23.333361 52.000000,37.666721 52.000000,52.000000 
	C49.955746,52.000000 47.975777,52.000000 45.516960,51.789314 
	C45.038113,51.578632 45.068260,51.156616 45.068260,51.156616 
	C50.156528,49.520699 50.703129,45.432728 50.543076,40.102028 
	C50.550697,34.148285 50.580479,29.067715 50.703796,23.540684 
	C50.736423,20.050169 50.675510,17.006115 50.702869,13.563498 
	C50.780987,11.805144 50.770828,10.445354 50.760674,9.085564 
z"/>
<path fill="#CBBAF7" opacity="1.000000" stroke="none" 
	d="
M44.597782,51.091251 
	C45.068260,51.156616 45.038113,51.578632 45.019058,51.789314 
	C31.315411,52.000000 17.630753,52.019032 3.946350,51.968529 
	C2.674392,51.963833 0.391873,53.009224 1.000000,49.500000 
	C15.221467,52.960064 29.763912,50.087132 44.597782,51.091251 
z"/>
<path fill="#CABAF0" opacity="1.000000" stroke="none" 
	d="
M1.000000,8.468657 
	C1.000000,8.000000 1.410686,7.919816 1.688244,8.341630 
	C2.665850,10.934484 3.365898,13.105522 4.066395,15.460741 
	C4.066844,15.644919 3.995618,16.006540 3.581481,16.065346 
	C2.781780,16.939571 2.065942,17.754215 2.064022,18.570539 
	C2.051146,24.045252 2.190132,29.520323 2.208539,35.433151 
	C2.183685,38.233799 2.230164,40.596573 2.276643,42.959351 
	C2.074703,44.610268 1.872763,46.261181 1.335411,47.956047 
	C1.000000,34.979103 1.000000,21.958210 1.000000,8.468657 
z"/>
<path fill="#7A4CE0" opacity="1.000000" stroke="none" 
	d="
M2.676079,42.956047 
	C2.230164,40.596573 2.183685,38.233799 2.652996,35.434326 
	C7.603320,34.998474 12.045033,34.841679 16.470428,35.043194 
	C21.169416,35.257172 25.852926,35.811108 30.482021,36.584335 
	C29.552921,38.960873 28.684992,40.969666 27.817062,42.978458 
	C19.569880,42.969887 11.322699,42.961315 2.676079,42.956047 
z"/>
<path fill="#7243D8" opacity="1.000000" stroke="none" 
	d="
M50.610260,23.987143 
	C50.580479,29.067715 50.550697,34.148285 50.450153,39.682007 
	C49.881367,40.087864 49.383339,40.040573 48.439804,39.531311 
	C47.967018,36.909374 48.202015,34.699535 47.804703,32.609924 
	C47.598007,31.522827 46.275284,30.647928 45.456692,29.677176 
	C44.539291,30.713192 43.201714,31.613001 42.810566,32.819614 
	C42.318691,34.336956 42.601151,36.105312 42.281693,37.836437 
	C41.360123,38.254204 40.706341,38.600891 39.892204,38.644699 
	C38.193752,36.085552 36.754490,33.751034 35.063751,31.615623 
	C34.475002,30.872032 33.264790,30.620497 31.925838,30.073940 
	C31.238091,29.959423 30.962906,29.915203 30.789352,29.528355 
	C31.674559,27.453308 32.458138,25.720890 33.694237,23.990150 
	C39.634594,23.990267 45.122429,23.988705 50.610260,23.987143 
z"/>
<path fill="#EFE9FB" opacity="1.000000" stroke="none" 
	d="
M32.338402,30.144239 
	C33.264790,30.620497 34.475002,30.872032 35.063751,31.615623 
	C36.754490,33.751034 38.193752,36.085552 39.803688,38.970085 
	C40.289886,41.082329 40.704243,42.566307 41.118599,44.050285 
	C40.311890,44.999035 39.585827,46.664482 38.683784,46.765987 
	C35.629295,47.109692 32.492500,47.085396 29.435043,46.756538 
	C28.759968,46.683929 28.281507,44.783333 27.764786,43.351467 
	C28.684992,40.969666 29.552921,38.960873 30.677738,36.293728 
	C31.402554,33.804996 31.870478,31.974619 32.338402,30.144239 
z"/>
<path fill="#F1ECFC" opacity="1.000000" stroke="none" 
	d="
M42.549477,37.765354 
	C42.601151,36.105312 42.318691,34.336956 42.810566,32.819614 
	C43.201714,31.613001 44.539291,30.713192 45.456692,29.677176 
	C46.275284,30.647928 47.598007,31.522827 47.804703,32.609924 
	C48.202015,34.699535 47.967018,36.909374 48.066994,39.520393 
	C47.965691,42.066448 47.791691,44.161457 47.492775,47.760502 
	C45.436447,46.478970 44.069939,45.627350 42.786884,44.020309 
	C42.763382,41.431717 42.656429,39.598534 42.549477,37.765354 
z"/>
<path fill="#A98BEC" opacity="1.000000" stroke="none" 
	d="
M42.281693,37.836437 
	C42.656429,39.598534 42.763382,41.431717 42.744659,43.711521 
	C42.286137,44.128807 41.953289,44.099468 41.369518,44.060204 
	C40.704243,42.566307 40.289886,41.082329 39.964050,39.272964 
	C40.706341,38.600891 41.360123,38.254204 42.281693,37.836437 
z"/>
<path fill="#5D30CA" opacity="1.000000" stroke="none" 
	d="
M4.065946,15.276562 
	C3.365898,13.105522 2.665850,10.934484 1.897245,8.351202 
	C3.386483,3.586318 6.517165,2.006167 11.062966,2.079621 
	C21.508045,2.248399 31.957800,2.160462 42.405453,2.121703 
	C46.889416,2.105069 49.650181,4.022598 50.490818,8.860435 
	C50.770828,10.445354 50.780987,11.805144 50.307648,13.553919 
	C42.318039,13.660003 34.811924,13.377102 27.337811,12.668774 
	C27.751469,9.209722 28.199207,6.118014 23.531036,7.336660 
	C22.593632,11.790057 21.732500,15.881107 20.574181,19.967026 
	C19.880751,19.968103 19.484505,19.974314 18.985298,19.535912 
	C18.908649,16.443903 19.181986,13.770035 18.901779,11.155490 
	C18.508665,7.487413 15.019584,5.571016 10.560287,6.302408 
	C7.237870,6.847334 4.882247,7.812094 6.898531,12.065898 
	C7.902269,14.183506 6.391783,15.405320 4.065946,15.276562 
z"/>
<path fill="#6A3CD1" opacity="1.000000" stroke="none" 
	d="
M27.305809,13.094202 
	C34.811924,13.377102 42.318039,13.660003 50.219376,13.952481 
	C50.675510,17.006115 50.736423,20.050169 50.703796,23.540684 
	C45.122429,23.988705 39.634594,23.990267 33.563877,23.618252 
	C30.385189,22.945202 27.789389,22.645731 24.352995,22.249281 
	C25.368631,19.100340 26.337219,16.097271 27.305809,13.094202 
z"/>
<path fill="#784ADA" opacity="1.000000" stroke="none" 
	d="
M19.088259,19.980524 
	C19.484505,19.974314 19.880751,19.968103 20.655367,20.328077 
	C20.469284,23.803934 19.793819,27.102203 23.687477,28.515285 
	C25.894241,29.316162 28.346195,29.441431 30.687721,29.870983 
	C30.962906,29.915203 31.238091,29.959423 31.925838,30.073940 
	C31.870478,31.974619 31.402554,33.804996 30.738911,35.925980 
	C25.852926,35.811108 21.169416,35.257172 16.470428,35.043194 
	C12.045033,34.841679 7.603320,34.998474 2.724328,34.996452 
	C2.190132,29.520323 2.051146,24.045252 2.064022,18.570539 
	C2.065942,17.754215 2.781780,16.939571 3.695584,16.373152 
	C4.495482,18.820892 4.625769,21.049564 5.082998,23.209011 
	C5.456799,24.974428 5.769234,27.596210 6.920671,28.149780 
	C8.523039,28.920141 11.530189,28.879864 12.782818,27.821558 
	C15.297712,25.696812 17.031874,22.647972 19.088259,19.980524 
z"/>
<path fill="#E8E1F7" opacity="1.000000" stroke="none" 
	d="
M18.985298,19.535912 
	C17.031874,22.647972 15.297712,25.696812 12.782818,27.821558 
	C11.530189,28.879864 8.523039,28.920141 6.920671,28.149780 
	C5.769234,27.596210 5.456799,24.974428 5.082998,23.209011 
	C4.625769,21.049564 4.495482,18.820892 4.109721,16.314346 
	C3.995618,16.006540 4.066844,15.644919 4.066395,15.460741 
	C6.391783,15.405320 7.902269,14.183506 6.898531,12.065898 
	C4.882247,7.812094 7.237870,6.847334 10.560287,6.302408 
	C15.019584,5.571016 18.508665,7.487413 18.901779,11.155490 
	C19.181986,13.770035 18.908649,16.443903 18.985298,19.535912 
M10.874950,14.303544 
	C10.172335,17.683882 9.469719,21.064219 8.629710,25.105566 
	C14.634736,22.197947 15.860823,18.836897 14.223431,9.813970 
	C12.724523,11.459001 11.822453,12.449011 10.874950,14.303544 
z"/>
<path fill="#E7E0F8" opacity="1.000000" stroke="none" 
	d="
M30.789352,29.528355 
	C28.346195,29.441431 25.894241,29.316162 23.687477,28.515285 
	C19.793819,27.102203 20.469284,23.803934 20.952553,20.333210 
	C21.732500,15.881107 22.593632,11.790057 23.531036,7.336660 
	C28.199207,6.118014 27.751469,9.209722 27.337812,12.668774 
	C26.337219,16.097271 25.368631,19.100340 24.352995,22.249281 
	C27.789389,22.645731 30.385189,22.945202 33.111351,23.616573 
	C32.458138,25.720890 31.674559,27.453308 30.789352,29.528355 
z"/>
<path fill="#7044D3" opacity="1.000000" stroke="none" 
	d="
M10.897667,13.871283 
	C11.822453,12.449011 12.724523,11.459001 14.223431,9.813970 
	C15.860823,18.836897 14.634736,22.197947 8.629710,25.105566 
	C9.469719,21.064219 10.172335,17.683882 10.897667,13.871283 
z"/>
</symbol>

	<!-- place the symbol where needed -->
<use xlink:href="#rd-icon-spotter" href="#rd-icon-spotter" x="0" y="0" />
</svg>