<!DOCTYPE svg PUBLIC "-//W3C//DTD SVG 1.1//EN" "http://www.w3.org/Graphics/SVG/1.1/DTD/svg11.dtd"> <svg width="124px" height="124px" viewBox="0 0 48 48" xmlns="http://www.w3.org/2000/svg" fill="none"> <symbol id="rd-icon-spotter" viewBox="0 0 48 48" fill="black"> <path fill-rule="evenodd" clip-rule="evenodd" d="M48 24C48 37.2548 37.2548 48 24 48C10.7452 48 0 37.2548 0 24C0 10.7452 10.7452 0 24 0C37.2548 0 48 10.7452 48 24ZM27.75 11.25C27.75 13.3211 26.0711 15 24 15C21.9289 15 20.25 13.3211 20.25 11.25C20.25 9.17893 21.9289 7.5 24 7.5C26.0711 7.5 27.75 9.17893 27.75 11.25ZM36 24H28.257L33.6141 39H27.243L24 29.9196L20.757 39H14.3859L19.743 24H12V18H36V24Z" fill="black"/> </symbol> <use href="#rd-icon-spotter" x="0" y="0" width="48" height="48" /> </svg>
