<svg xmlns="http://www.w3.org/2000/svg" style="display: none;">
  
  <!-- Custom Spotter icon -->
  <symbol id="rd-icon-spotter" viewBox="0 0 48 48">
    <circle cx="24" cy="24" r="10" fill="currentColor"/>
    <g stroke="currentColor" stroke-width="2" fill="none">
      <line x1="24" y1="2" x2="24" y2="12"/>
      <line x1="24" y1="36" x2="24" y2="46"/>
      <line x1="2" y1="24" x2="12" y2="24"/>
      <line x1="36" y1="24" x2="46" y2="24"/>
      <line x1="9.22" y1="9.22" x2="16.97" y2="16.97"/>
      <line x1="31.03" y1="31.03" x2="38.78" y2="38.78"/>
      <line x1="9.22" y1="38.78" x2="16.97" y2="31.03"/>
      <line x1="31.03" y1="16.97" x2="38.78" y2="9.22"/>
    </g>
  </symbol>
  
  <!-- Replace ThoughtSpot icon -->
  <symbol id="rd-icon-thoughtspot" viewBox="0 0 48 48">
    <circle cx="24" cy="24" r="10" fill="currentColor"/>
    <g stroke="currentColor" stroke-width="2" fill="none">
      <line x1="24" y1="2" x2="24" y2="12"/>
      <line x1="24" y1="36" x2="24" y2="46"/>
      <line x1="2" y1="24" x2="12" y2="24"/>
      <line x1="36" y1="24" x2="46" y2="24"/>
      <line x1="9.22" y1="9.22" x2="16.97" y2="16.97"/>
      <line x1="31.03" y1="31.03" x2="38.78" y2="38.78"/>
      <line x1="9.22" y1="38.78" x2="16.97" y2="31.03"/>
      <line x1="31.03" y1="16.97" x2="38.78" y2="9.22"/>
    </g>
  </symbol>
   
</svg>
